<svg width="33" height="32" viewBox="0 0 33 32" fill="none" xmlns="http://www.w3.org/2000/svg">
<path d="M31.6474 5.19418L27.2838 0.826856C26.1844 -0.273531 24.2717 -0.275644 23.168 0.82897L3.61972 20.5701C3.53306 20.6576 3.47054 20.7649 3.43644 20.8829L0.527397 31.0734C0.454988 31.3271 0.525965 31.6008 0.712783 31.7878C0.851261 31.9264 1.03665 32.001 1.22701 32.001C1.29376 32.001 1.36126 31.9918 1.42658 31.9733L11.6084 29.0617C11.7263 29.0276 11.8335 28.965 11.9209 28.8783L31.6474 9.31127C32.1972 8.76111 32.4997 8.03034 32.4997 7.25273C32.4997 6.47511 32.1972 5.74434 31.6474 5.19418Z" fill="#0C0B0B"/>
<path d="M8.69446 22.7735L7.69137 20.7667C7.56776 20.5202 7.31637 20.3647 7.04078 20.3647H5.8761L19.9944 6.11935L22.6715 8.79644L8.69446 22.7735Z" fill="#FFCA28"/>
<path d="M11.7298 24.805L9.7229 23.8019L23.6999 9.82493L26.377 12.502L12.1318 26.6203V25.4556C12.1318 25.18 11.9762 24.9286 11.7298 24.805Z" fill="#FFCA28"/>
<path d="M24.1942 1.88171C24.744 1.33196 25.7013 1.33196 26.251 1.88171L30.6147 6.24535C30.8895 6.52019 31.0408 6.88524 31.0408 7.27374C31.0408 7.66224 30.8895 8.02728 30.6168 8.30001L27.41 11.4782L21.0182 5.08633L24.1942 1.88171Z" fill="#D32F2F"/>
<path d="M8.17441 24.6551C8.10411 24.6199 7.88429 24.4001 7.84911 24.3298L6.59559 21.8226H4.68438L3.06567 27.489L5.09429 29.416L10.6816 27.8199V25.9087L8.17441 24.6551Z" fill="#F2F2F2"/>
<path d="M5.09419 29.416L3.06565 27.489L3.23324 26.9021L2.28592 30.2183L5.60201 29.2709L5.09419 29.416Z" fill="#0C0B0B"/>
<path opacity="0.1" d="M10.6815 25.9087L8.17438 24.6551C8.10408 24.62 8.06672 24.5475 8.01176 24.4925L2.28592 30.2184L10.6815 27.8199V25.9087Z" fill="#0C0B0B"/>
<path opacity="0.1" d="M28.4372 4.06701L24.2184 8.28576L27.4144 11.4817L30.6212 8.30356C30.8939 8.03083 31.0452 7.66578 31.0452 7.27728C31.0452 6.88878 30.8939 6.52374 30.6191 6.2489L28.4372 4.06701Z" fill="#0C0B0B"/>
<path opacity="0.1" d="M11.7341 24.8085L9.72723 23.8054L23.7042 9.82836L26.3813 12.5055L12.1361 26.6237V25.4591C12.1361 25.1835 11.9805 24.9321 11.7341 24.8085Z" fill="#0C0B0B"/>
<path d="M31.6474 5.19418L27.2838 0.826856C26.1844 -0.273531 24.2717 -0.275644 23.168 0.82897L3.61972 20.5701C3.53306 20.6576 3.47054 20.7649 3.43644 20.8829L0.527397 31.0734C0.454988 31.3271 0.525965 31.6008 0.712783 31.7878C0.851261 31.9264 1.03665 32.001 1.22701 32.001C1.29376 32.001 1.36126 31.9918 1.42658 31.9733L11.6084 29.0617C11.7263 29.0276 11.8335 28.965 11.9209 28.8783L31.6474 9.31127C32.1972 8.76111 32.4997 8.03034 32.4997 7.25273C32.4997 6.47511 32.1972 5.74434 31.6474 5.19418Z" fill="url(#paint0_linear_1_210)"/>
<defs>
<linearGradient id="paint0_linear_1_210" x1="7.09132" y1="13.0226" x2="26.0045" y2="21.8383" gradientUnits="userSpaceOnUse">
<stop stop-color="white" stop-opacity="0.2"/>
<stop offset="1" stop-color="white" stop-opacity="0"/>
</linearGradient>
</defs>
</svg>
