<svg width="24" height="27" viewBox="0 0 24 27" fill="none" xmlns="http://www.w3.org/2000/svg">
<path d="M12.3396 0.0975647C8.5533 0.0975647 5.4729 3.17796 5.4729 6.96426C5.4729 10.7506 8.5533 13.831 12.3396 13.831C16.1259 13.831 19.2063 10.7506 19.2063 6.96426C19.2063 3.17796 16.1259 0.0975647 12.3396 0.0975647ZM12.3396 12.305C9.3947 12.305 6.99883 9.90916 6.99883 6.96426C6.99883 4.01936 9.3947 1.6235 12.3396 1.6235C15.2845 1.6235 17.6804 4.01936 17.6804 6.96426C17.6804 9.90916 15.2845 12.305 12.3396 12.305Z" fill="white"/>
<path d="M20.8831 18.3169C19.0032 16.4081 16.511 15.3569 13.8656 15.3569H10.8137C8.16835 15.3569 5.67609 16.4081 3.79614 18.3169C1.9254 20.2164 0.895142 22.7237 0.895142 25.3772C0.895142 25.7985 1.23675 26.1401 1.65811 26.1401H23.0212C23.4425 26.1401 23.7841 25.7985 23.7841 25.3772C23.7841 22.7237 22.7539 20.2164 20.8831 18.3169ZM2.45464 24.6142C2.83689 20.2863 6.43992 16.8828 10.8137 16.8828H13.8656C18.2393 16.8828 21.8424 20.2863 22.2246 24.6142H2.45464Z" fill="white"/>
</svg>
