<svg width="17" height="17" viewBox="0 0 17 17" fill="none" xmlns="http://www.w3.org/2000/svg">
<path d="M11.4905 2.57262C9.04967 0.13184 5.07712 0.13184 2.63634 2.57262C0.196089 5.01393 0.196089 8.98595 2.63634 11.4273C4.80992 13.6003 8.19516 13.8331 10.6344 12.1363C10.6857 12.3791 10.8031 12.6109 10.992 12.7998L14.5466 16.3543C15.0646 16.8713 15.9016 16.8713 16.417 16.3543C16.9345 15.8369 16.9345 14.9998 16.417 14.4839L12.8624 10.9283C12.6746 10.741 12.4423 10.623 12.1995 10.5717C13.8974 8.13197 13.6646 4.74726 11.4905 2.57262ZM10.3682 10.305C8.54596 12.1273 5.58031 12.1273 3.75858 10.305C1.93739 8.48277 1.93739 5.51764 3.75858 3.69539C5.58031 1.87367 8.54596 1.87367 10.3682 3.69539C12.1905 5.51764 12.1905 8.48277 10.3682 10.305Z" fill="#0C0B0B"/>
</svg>
